<?xml version="1.0" encoding="UTF-8" standalone="no"?><!DOCTYPE svg PUBLIC "-//W3C//DTD SVG 1.1//EN" "http://www.w3.org/Graphics/SVG/1.1/DTD/svg11.dtd"><svg width="100%" height="100%" viewBox="0 0 192 192" version="1.1" xmlns="http://www.w3.org/2000/svg" xmlns:xlink="http://www.w3.org/1999/xlink" xml:space="preserve" xmlns:serif="http://www.serif.com/" style="fill-rule:evenodd;clip-rule:evenodd;stroke-linejoin:round;stroke-miterlimit:2;"><path d="M154.5,0c20.71,0 37.5,16.79 37.5,37.5l0,117c0,20.71 -16.79,37.5 -37.5,37.5l-117,0c-20.71,0 -37.5,-16.79 -37.5,-37.5l0,-117c0,-20.71 16.79,-37.5 37.5,-37.5l117,0Zm-58.5,48c0,26.51 -21.49,48 -48,48c26.51,0 48,21.49 48,48c0,-26.51 21.49,-48 48,-48c-26.51,0 -48,-21.49 -48,-48Z" style="fill:#1a2eff;fill-rule:nonzero;"/></svg>