<?xml version="1.0" encoding="UTF-8" standalone="no"?>
<!DOCTYPE svg PUBLIC "-//W3C//DTD SVG 1.1//EN" "http://www.w3.org/Graphics/SVG/1.1/DTD/svg11.dtd">
<svg width="927px" height="1500px" version="1.1" xmlns="http://www.w3.org/2000/svg" xmlns:xlink="http://www.w3.org/1999/xlink" xml:space="preserve" xmlns:serif="http://www.serif.com/" style="fill-rule:evenodd;clip-rule:evenodd;stroke-linejoin:round;stroke-miterlimit:2;">
    <g transform="matrix(2.822925,0,0,2.636292,-375.870061,-681.593101)">
        <path d="M297.929,826.479C297.8,826.703 297.572,826.839 297.326,826.839C297.081,826.839 296.853,826.703 296.724,826.479C286.152,808.16 139.974,554.858 133.379,543.432C133.238,543.187 133.238,542.878 133.379,542.634C139.854,531.415 280.889,287.026 296.015,260.814C296.182,260.526 296.507,260.391 296.812,260.483C297.116,260.576 297.326,260.874 297.326,261.213C297.326,289.147 297.326,527.102 297.326,542.274C297.326,542.475 297.401,542.668 297.534,542.811C297.667,542.953 297.847,543.033 298.035,543.033C309.073,543.033 445.588,543.033 460.233,543.033C460.49,543.033 460.727,543.182 460.852,543.422C460.977,543.662 460.971,543.956 460.836,544.19C449.904,563.133 308.327,808.462 297.929,826.479Z" style="fill:rgb(46,44,255);"/>
    </g>
</svg>
